
<svg xmlns="http://www.w3.org/2000/svg" version="1.1" xmlns:xlink="http://www.w3.org/1999/xlink" preserveAspectRatio="none" x="0px" y="0px" width="180px" height="180px" viewBox="0 0 180 180">
<defs>
<filter id="Filter_1" x="-21.14276695296637%" y="-24.57775809630249%" width="142.28553390593274%" height="149.15551619260498%" color-interpolation-filters="sRGB">
<feFlood flood-color="#FFFFFF" flood-opacity="1" in="SourceGraphic" result="result1"/>

<feGaussianBlur in="SourceGraphic" stdDeviation="5,3.3333333333333335" result="result2"/>

<feComposite in2="result2" in="result1" operator="in" result="result3"/>

<feComposite in2="result3" in="SourceGraphic" operator="over" result="result4"/>
</filter>

<g id="Layer0_0_FILL">
<path fill="#000000" stroke="none" d="
M 180 144
L 180 36
Q 180 0 144 0
L 36 0
Q 0 0 0 36
L 0 144
Q 0 180 36 180
L 144 180
Q 180 180 180 144 Z"/>
</g>

<g id="Symbol_2_0_Layer0_0_FILL">
<path fill="#FFFFFF" stroke="none" d="
M 3.4 0.9
Q 3.55 0.65 3.5 0.45 3.5 0.2 3.3 0.1 3.15 0 2.95 0 2.75 0 2.6 0.2
L 0.25 3
Q -0.05 3.4 0 3.8 0 4.2 0.25 4.5
L 2.6 7.7
Q 2.75 7.9 2.95 7.95 3.15 7.95 3.3 7.85 3.45 7.75 3.5 7.5 3.55 7.3 3.4 7.05
L 1.45 4.2
Q 1.35 4.05 1.35 3.9 1.3 3.7 1.4 3.55
L 1.75 3 3.4 0.9
M 9.5 1.3
Q 9.65 1.1 9.55 0.9 9.5 0.7 9.3 0.6 9.15 0.5 8.95 0.5 8.75 0.55 8.6 0.7
L 7.65 2 4.9 6.55
Q 4.8 6.8 4.9 7 4.95 7.2 5.15 7.35 5.3 7.45 5.5 7.4 5.75 7.35 5.9 7.05
L 9.5 1.3
M 10.85 0.9
L 12.5 3 12.8 3.55
Q 12.9 3.7 12.9 3.9 12.9 4.05 12.75 4.2
L 10.85 7.05
Q 10.7 7.3 10.75 7.5 10.75 7.75 10.95 7.85 11.05 7.95 11.3 7.95 11.5 7.9 11.65 7.7
L 14 4.5
Q 14.2 4.2 14.25 3.8 14.25 3.35 14 3
L 11.65 0.2
Q 11.5 0 11.3 0 11.05 0 10.9 0.1 10.75 0.2 10.7 0.45 10.7 0.65 10.85 0.9 Z"/>
</g>
</defs>

<g transform="matrix( 1, 0, 0, 1, 0,0) ">
<use xlink:href="#Layer0_0_FILL"/>
</g>

<g filter="url(#Filter_1)" transform="matrix( 1, 0, 0, 1, 0,0) ">
<g transform="matrix( 11.228073120117188, 0, 0, 11.069183349609375, 10.9,47.3) ">
<g transform="matrix( 1, 0, 0, 1, 0,0) ">
<use xlink:href="#Symbol_2_0_Layer0_0_FILL"/>
</g>
</g>
</g>
</svg>
